<?xml version="1.0" encoding="UTF-8"?>
<!DOCTYPE svg PUBLIC "-//W3C//DTD SVG 1.1//EN" "http://www.w3.org/Graphics/SVG/1.1/DTD/svg11.dtd">
<svg xmlns="http://www.w3.org/2000/svg" version="1.1" width="673px" height="673px" style="shape-rendering:geometricPrecision; text-rendering:geometricPrecision; image-rendering:optimizeQuality; fill-rule:evenodd; clip-rule:evenodd" xmlns:xlink="http://www.w3.org/1999/xlink">
<g><path style="opacity:0.973" fill="#22c55d" d="M 326.5,53.5 C 372.894,49.8106 411.728,64.8106 443,98.5C 478.262,141.875 485.928,189.875 466,242.5C 460.588,254.565 453.588,265.565 445,275.5C 436.046,297.557 442.213,313.724 463.5,324C 477.773,328.065 489.273,324.232 498,312.5C 502.482,300.533 505.482,288.2 507,275.5C 522.887,242.475 548.72,230.309 584.5,239C 606.687,248.204 618.354,264.87 619.5,289C 617.294,319.545 600.96,334.211 570.5,333C 557.628,330.745 553.461,323.578 558,311.5C 559.543,309.622 561.376,308.122 563.5,307C 568.855,306.072 574.189,305.072 579.5,304C 588.327,296.382 589.66,287.549 583.5,277.5C 568.734,264.873 555.234,266.206 543,281.5C 540.89,284.492 539.557,287.825 539,291.5C 538.245,298.537 537.245,305.537 536,312.5C 528.399,340.103 510.565,356.603 482.5,362C 460.693,363.846 442.526,356.68 428,340.5C 430.274,358.545 438.44,373.378 452.5,385C 466.317,393.786 480.651,394.786 495.5,388C 505.423,380.553 515.09,372.886 524.5,365C 557.142,348.199 585.976,353.033 611,379.5C 612.256,383.016 614.256,386.016 617,388.5C 622.578,401.376 624.911,414.71 624,428.5C 622.003,439.161 617.336,448.494 610,456.5C 602.08,462.435 594.913,461.769 588.5,454.5C 585.321,445.659 586.487,437.326 592,429.5C 593.105,416.377 588.272,406.044 577.5,398.5C 563.818,392.149 551.151,393.649 539.5,403C 531.797,410.818 523.797,418.152 515.5,425C 481.246,442.295 449.913,438.295 421.5,413C 405.076,395.124 393.909,374.291 388,350.5C 383.571,382.147 391.238,410.147 411,434.5C 419.897,444.072 430.397,451.239 442.5,456C 460.365,457.715 477.365,462.382 493.5,470C 514.213,483.796 526.713,502.962 531,527.5C 533.591,563.231 518.424,588.064 485.5,602C 457.192,610.454 433.525,603.621 414.5,581.5C 412.523,575.399 413.523,569.899 417.5,565C 425.98,560.356 433.647,561.69 440.5,569C 456.959,575.757 471.459,572.923 484,560.5C 498.409,534.574 492.243,515.074 465.5,502C 405.154,499.548 366.32,469.381 349,411.5C 345.427,389.169 342.761,366.836 341,344.5C 341.148,372.867 337.148,400.533 329,427.5C 320.213,448.91 306.713,466.743 288.5,481C 269.524,492.769 248.857,499.103 226.5,500C 222.347,500.384 218.347,501.384 214.5,503C 200.206,510.134 191.873,521.634 189.5,537.5C 192.048,559.192 204.215,570.858 226,572.5C 231.01,572.677 235.844,571.844 240.5,570C 243.557,567.277 246.89,564.944 250.5,563C 265.566,561.632 270.733,568.132 266,582.5C 247.202,603.61 224.035,610.11 196.5,602C 170.201,591.269 155.035,571.769 151,543.5C 149.738,524.09 154.738,506.423 166,490.5C 170.525,484.642 175.691,479.475 181.5,475C 189.839,469.331 198.839,464.998 208.5,462C 258.153,458.156 286.653,431.656 294,382.5C 294.667,372.833 294.667,363.167 294,353.5C 287.056,382.7 271.556,406.2 247.5,424C 221.355,438.974 195.022,439.307 168.5,425C 158.151,415.654 147.485,406.654 136.5,398C 116.438,390.462 101.272,395.962 91,414.5C 89.6415,419.775 89.3081,425.109 90,430.5C 92.1127,435.837 93.6127,441.337 94.5,447C 94.7409,455.926 90.4076,460.426 81.5,460.5C 75.2978,459.815 70.4645,456.815 67,451.5C 49.6168,417.489 56.1168,388.989 86.5,366C 109.939,352.409 133.605,352.076 157.5,365C 166.109,370.943 174.109,377.61 181.5,385C 203.591,397.643 223.091,394.477 240,375.5C 243,370.833 246,366.167 249,361.5C 251.386,356.025 252.719,350.359 253,344.5C 230.184,364.788 205.018,367.955 177.5,354C 155.207,338.846 144.041,317.679 144,290.5C 142,286.5 140,282.5 138,278.5C 125.797,266.08 113.131,265.413 100,276.5C 92.2227,286.085 92.7227,295.085 101.5,303.5C 107.058,304.995 112.725,306.161 118.5,307C 124.97,311.126 127.137,316.959 125,324.5C 121.85,329.999 117.016,332.832 110.5,333C 96.666,334.943 84.8327,331.11 75,321.5C 60.2588,302.79 58.5922,282.79 70,261.5C 81.6047,244.61 97.7713,235.944 118.5,235.5C 146.965,237.472 166.131,251.805 176,278.5C 177.893,288.195 179.893,297.862 182,307.5C 192.856,324.924 207.69,329.424 226.5,321C 244.524,306.077 247.024,288.91 234,269.5C 225.716,259.534 219.049,248.534 214,236.5C 195.993,177.573 209.159,127.073 253.5,85C 260.891,79.277 268.557,73.9436 276.5,69C 292.591,61.4663 309.258,56.2997 326.5,53.5 Z M 328.5,81.5 C 333.599,81.1746 338.599,81.6746 343.5,83C 347.999,86.4925 348.665,90.6592 345.5,95.5C 343.78,96.934 341.78,97.7674 339.5,98C 303.126,100.075 276.96,117.241 261,149.5C 259.486,154.56 257.819,159.56 256,164.5C 253,168.444 249.167,169.444 244.5,167.5C 242.532,165.395 241.532,162.895 241.5,160C 243.31,147.897 247.477,136.731 254,126.5C 257.957,120.875 262.291,115.541 267,110.5C 270.72,108.233 273.887,105.4 276.5,102C 286.985,94.7577 298.318,89.091 310.5,85C 316.657,83.922 322.657,82.7553 328.5,81.5 Z M 279.5,188.5 C 299.935,187.13 314.101,195.797 322,214.5C 325.71,231.707 320.876,245.873 307.5,257C 285.02,267.674 266.854,262.841 253,242.5C 244.582,215.673 253.415,197.673 279.5,188.5 Z M 391.5,188.5 C 421.371,190.197 434.871,205.864 432,235.5C 429.682,240.136 427.349,244.802 425,249.5C 410.296,263.803 393.796,266.136 375.5,256.5C 371.452,252.29 367.619,247.956 364,243.5C 356.691,227.317 359.024,212.317 371,198.5C 377.241,193.628 384.074,190.295 391.5,188.5 Z M 278.5,211.5 C 282.92,212.339 284.087,214.672 282,218.5C 278.813,221.411 276.313,220.911 274.5,217C 275.007,214.455 276.341,212.621 278.5,211.5 Z M 387.5,212.5 C 395.141,213.961 395.474,216.628 388.5,220.5C 386.697,219.863 385.364,218.697 384.5,217C 385.386,215.385 386.386,213.885 387.5,212.5 Z"/></g>
<g><path style="opacity:0.911" fill="#22c55d" d="M 286.5,204.5 C 302.789,207.617 309.289,217.284 306,233.5C 299.353,244.276 289.853,247.776 277.5,244C 269.699,240.065 266.032,233.732 266.5,225C 265.726,216.61 269.06,210.61 276.5,207C 279.952,206.115 283.286,205.282 286.5,204.5 Z M 278.5,211.5 C 276.341,212.621 275.007,214.455 274.5,217C 276.313,220.911 278.813,221.411 282,218.5C 284.087,214.672 282.92,212.339 278.5,211.5 Z"/></g>
<g><path style="opacity:0.918" fill="#22c55d" d="M 394.5,204.5 C 411.26,206.431 418.427,215.764 416,232.5C 409.853,244.114 400.353,247.948 387.5,244C 376.362,236.292 373.528,226.125 379,213.5C 383.41,208.864 388.577,205.864 394.5,204.5 Z M 387.5,212.5 C 386.386,213.885 385.386,215.385 384.5,217C 385.364,218.697 386.697,219.863 388.5,220.5C 395.474,216.628 395.141,213.961 387.5,212.5 Z"/></g>
<g><path style="opacity:0.918" fill="#22c55d" d="M 122.5,412.5 C 137.786,412.287 143.619,419.621 140,434.5C 134.553,442.815 127.387,444.648 118.5,440C 112.836,434.509 111.336,428.009 114,420.5C 116.098,416.897 118.932,414.23 122.5,412.5 Z"/></g>
<g><path style="opacity:0.914" fill="#22c55d" d="M 552.5,412.5 C 559.526,412.097 565.026,414.763 569,420.5C 571.986,429.08 569.819,435.913 562.5,441C 550.216,444.547 542.883,440.047 540.5,427.5C 541.476,420.028 545.476,415.028 552.5,412.5 Z"/></g>
<g><path style="opacity:0.923" fill="#21c55d" d="M 335.5,456.5 C 349.659,454.464 356.826,460.464 357,474.5C 352.885,485.669 345.052,489.169 333.5,485C 324.802,478.608 323.302,470.775 329,461.5C 330.805,459.174 332.972,457.508 335.5,456.5 Z"/></g>
<g><path style="opacity:0.92" fill="#22c55d" d="M 124.5,457.5 C 130.526,456.676 135.693,458.342 140,462.5C 141.5,466.07 143,469.57 144.5,473C 142.956,475.999 141.789,479.166 141,482.5C 133.655,489.88 125.822,490.38 117.5,484C 110.444,472.469 112.777,463.636 124.5,457.5 Z"/></g>
<g><path style="opacity:0.915" fill="#22c55d" d="M 548.5,457.5 C 560.66,455.846 567.327,461.012 568.5,473C 568.197,477.448 566.531,481.281 563.5,484.5C 560.125,485.838 556.792,487.171 553.5,488.5C 538.556,485.029 534.556,476.362 541.5,462.5C 543.724,460.566 546.058,458.899 548.5,457.5 Z"/></g>
<g><path style="opacity:0.944" fill="#22c55d" d="M 305.5,500.5 C 324.913,502.078 332.747,512.411 329,531.5C 326.656,534.211 324.489,537.044 322.5,540C 319.623,540.956 316.956,542.289 314.5,544C 310.5,544.667 306.5,544.667 302.5,544C 299.629,542.065 296.629,540.399 293.5,539C 282.724,524.704 284.724,512.537 299.5,502.5C 301.657,501.95 303.657,501.283 305.5,500.5 Z"/></g>
<g><path style="opacity:0.947" fill="#22c55d" d="M 369.5,500.5 C 382.093,500.045 390.593,505.712 395,517.5C 396.712,526.516 394.212,534.016 387.5,540C 382.987,542.013 378.487,543.847 374,545.5C 368.749,543.743 363.583,541.577 358.5,539C 351.116,528.873 350.616,518.373 357,507.5C 361.084,504.893 365.25,502.559 369.5,500.5 Z"/></g>
<g><path style="opacity:0.932" fill="#22c55d" d="M 234.5,516.5 C 248.238,516.262 255.405,522.929 256,536.5C 253.256,547.773 246.089,552.273 234.5,550C 232.167,549 229.833,548 227.5,547C 218.406,534.21 220.739,524.044 234.5,516.5 Z"/></g>
<g><path style="opacity:0.928" fill="#22c55d" d="M 439.5,516.5 C 443.342,516.239 447.009,516.906 450.5,518.5C 452.19,521.024 454.357,523.024 457,524.5C 462.795,539.251 457.962,547.918 442.5,550.5C 427.626,547.773 422.793,539.106 428,524.5C 431.51,521.121 435.344,518.454 439.5,516.5 Z"/></g>
<g><path style="opacity:0.95" fill="#22c55d" d="M 338.5,560.5 C 355.641,560.796 364.974,569.462 366.5,586.5C 364.488,601.344 355.988,609.678 341,611.5C 325.761,609.595 317.261,601.095 315.5,586C 317.188,571.824 324.854,563.324 338.5,560.5 Z"/></g>
</svg>
